<?xml version="1.0" standalone="no"?><!DOCTYPE svg PUBLIC "-//W3C//DTD SVG 1.1//EN" "http://www.w3.org/Graphics/SVG/1.1/DTD/svg11.dtd" ><svg xmlns="http://www.w3.org/2000/svg"><metadata></metadata><defs><font id="Founder:FZJinLS-B-GB	Regular" horiz-adv-x="256"><font-face font-family="FZJinLS-B-GB" font-weight="400" font-stretch="normal" units-per-em="256" panose-1="2 0 0 0 0 0 0 0 0 0" ascent="223" descent="-58" x-height="0" bbox="4 -31 251 209" underline-thickness="12" underline-position="-46" unicode-range="U+4ea4-9662" /><missing-glyph horiz-adv-x="256"  /><glyph glyph-name="" unicode="&#x4ea4;" d="M229 153 q-1 -3 -10 -3 q-3 0 -12 0 q-13 -1 -22 -1 q-3 -1 -40 -3 q-41 -2 -68 -4 q-1 0 -3 0 q-15 -1 -34 -4 q-3 4 -6 13 q11 0 33 0 q6 1 23 1 q15 1 24 1 l27 2 q27 2 43 2 l14 21 q14 -9 21 -15 q10 -7 10 -10 ZM206 98 q-3 -7 -11 -8 q-6 0 -11 4 q-3 6 -7 10 q-13 21 -35 28 q-9 3 -5 5 q4 2 16 0 q45 -5 54 -25 q3 -8 -1 -14 ZM119 115 q-2 -4 -14 -5 q-28 -25 -58 -36 q-4 -3 -6 -1 q0 2 4 6 q21 19 39 46 q1 1 4 7 q2 5 3 6 q6 -4 19 -13 q9 -6 9 -10 ZM245 8 q1 -2 -5 -5 q-6 -1 -11 -3 q-10 -3 -22 -14 q0 0 -1 -2 q-2 -2 -3 -3 q-3 -3 -5 -3 q-5 0 -11 4 q-31 14 -58 41 q-20 -21 -55 -32 q-27 -10 -53 -14 q-7 -3 -7 1 q-1 2 6 5 q10 3 26 11 q8 3 11 4 q21 11 41 26 q1 1 2 2 q10 8 15 15 q-15 22 -25 49 q-1 4 1 6 q2 0 5 -4 q13 -20 31 -37 q14 23 20 53 q2 -1 5 -2 q7 -3 15 -9 q11 -7 11 -10 q0 -5 -10 -8 q-8 -18 -23 -38 q32 -23 82 -28 q1 -1 5 -1 q4 -1 6 -1 q6 0 7 -3 ZM144 183 q3 -8 -1 -17 q-5 -8 -14 -8 q-8 1 -11 7 q-1 1 -3 9 q2 -7 -1 3 q-2 11 -10 18 q-6 5 -4 6 q0 2 12 0 q9 0 19 -5 q10 -6 13 -13 Z" /><glyph glyph-name="" unicode="&#x4fe1;" d="M222 52 q0 -3 -4 -5 q0 0 -1 -1 q-1 -1 -3 -2 q-2 -1 -3 -2 q0 -9 -2 -20 q12 -9 11 -13 q0 -1 -9 -3 q-6 0 -24 0 q-17 -1 -53 -3 q0 -12 -3 -17 q-7 -9 -15 -10 q-1 -2 -3 0 q-1 0 -1 2 l0 13 q0 16 -2 51 q2 -25 0 3 q0 3 -1 14 q-1 7 -1 11 q1 -1 9 -4 q4 -2 6 -3 q1 -1 6 -3 q6 -3 10 -5 q5 0 16 1 q21 1 33 2 q1 1 5 7 q3 4 5 7 q5 -3 16 -11 q8 -6 8 -9 ZM107 176 q0 -5 -9 -8 q-3 -4 -8 -12 q-3 -6 -12 -18 l0 -101 q0 -24 0 -28 q-1 -13 -6 -17 q-3 -3 -9 -8 q-6 -5 -10 -3 q-1 0 -1 10 q4 42 6 114 q0 7 0 10 q-3 -2 -9 -7 q-6 -6 -9 -8 q-13 -10 -24 -16 q-6 -2 -6 -1 q-1 2 3 6 q11 10 21 22 q16 20 33 52 q2 5 7 18 q3 9 5 14 q5 -3 18 -10 q3 -3 6 -5 q1 -1 2 -2 q2 -1 2 -2 ZM188 50 q-25 -3 -57 -4 q1 -10 1 -20 l1 -15 l52 3 q0 12 3 36 ZM242 149 q0 -3 -11 -3 q-5 0 -15 0 q-10 -1 -15 -1 q-13 -1 -37 -2 q-29 -2 -43 -3 q-16 -1 -27 -3 l-4 11 q14 0 25 0 q48 2 90 5 q1 2 4 8 q5 7 7 11 q8 -5 20 -14 q6 -5 6 -9 ZM176 180 q3 -9 -1 -16 q-5 -8 -13 -8 q-8 0 -11 7 q0 0 -1 1 q-1 2 -3 10 q-2 12 -10 18 q-4 5 -4 6 q1 2 12 0 q9 -2 18 -5 q10 -6 13 -13 ZM210 86 q-1 -2 -7 -3 q-2 0 -3 0 q-8 0 -23 0 q-14 -1 -38 -3 q-2 0 -8 -1 q-9 -1 -15 -2 q-1 4 -4 11 q16 0 22 0 q6 1 21 1 q12 1 20 1 q1 3 7 12 q3 4 4 6 q2 -1 5 -3 q5 -4 14 -11 q6 -5 5 -8 ZM210 117 q0 -3 -10 -3 q-2 0 -8 0 q-9 -1 -15 -1 q-14 0 -38 -3 q-4 0 -14 -1 q-5 -1 -8 -1 q-1 1 -3 6 q-1 3 -2 4 q16 0 22 0 q15 2 41 2 q1 3 7 12 q3 4 4 6 q10 -6 19 -14 q6 -4 5 -7 Z" /><glyph glyph-name="" unicode="&#x5165;" d="M251 19 q0 -3 -7 -4 q-3 -1 -9 -3 q-13 -6 -24 -14 q-8 -7 -10 -7 q-3 -1 -11 5 q-5 3 -14 13 q-17 24 -29 47 q-1 3 -3 7 q-12 25 -15 41 q-40 -80 -112 -119 q-5 -3 -9 -3 q0 0 0 1 q-1 0 -1 1 q0 1 6 7 q71 64 96 141 l13 -9 q-9 40 -10 52 l-4 23 q30 -10 29 -15 q-1 -5 -11 -10 q9 -66 48 -106 q23 -26 59 -40 q4 -1 12 -4 q6 -2 6 -4 Z" /><glyph glyph-name="" unicode="&#x524d;" d="M129 113 q0 -2 -3 -5 q-1 0 -2 -2 q-2 -1 -3 -2 q0 -12 0 -35 q0 -3 1 -9 q1 -16 1 -33 q0 -1 0 -9 q0 -6 0 -10 q0 -9 -5 -15 q-7 -10 -14 -10 q-3 0 -8 10 q-1 6 -15 18 q-3 4 -3 4 q1 2 5 1 q2 0 6 -1 q7 -1 10 0 q2 0 2 5 q0 9 0 23 q0 15 0 23 q0 9 -1 22 l0 23 q-4 -1 -16 -1 q-10 -1 -16 -1 l0 -26 q15 1 24 4 q2 -2 3 -5 q0 0 1 -1 q1 -2 0 -3 q0 -1 -4 -1 q-3 -1 -5 -1 q-7 0 -19 -1 q0 -12 0 -23 q8 1 20 3 q2 1 3 1 q2 -1 3 -5 q0 0 1 -1 q1 -2 0 -3 q0 0 -9 -2 q-6 0 -18 -1 q0 -21 0 -38 q0 -2 -1 -6 q0 -2 -1 -5 q-2 -5 -8 -8 q-7 -6 -12 -4 q-2 0 -2 3 q0 3 1 8 q3 35 3 96 q0 22 0 40 q16 -7 26 -13 q4 0 12 1 q9 0 12 1 q4 4 10 11 q2 -2 7 -5 q2 -2 4 -3 q10 -6 10 -9 ZM208 125 q0 -4 -7 -9 q0 -3 0 -13 l0 -10 q0 -13 1 -28 q0 -10 1 -36 q1 -20 -3 -35 q-2 -6 -8 -12 q-6 -6 -12 -6 q-3 0 -5 5 q-4 8 -6 11 q-1 1 -3 5 q-3 2 -4 4 q-1 1 -2 2 q-1 1 -3 3 q-4 3 -4 5 q2 2 6 1 q2 0 8 -1 q3 -1 5 -1 q3 0 5 2 q1 2 1 6 q0 5 0 11 l0 11 q0 23 -1 68 q0 2 0 13 q0 12 0 20 q2 -1 8 -3 q7 -3 11 -5 q12 -5 12 -8 ZM241 150 q-1 -3 -12 -3 l-34 0 l-65 -2 q-7 0 -26 -1 q-27 -2 -45 -3 q-11 0 -35 -3 l-7 12 q13 -1 38 -1 q8 1 34 2 q26 1 43 2 q8 17 17 37 q3 9 7 19 q8 -6 21 -15 q9 -7 8 -11 q-1 -3 -5 -5 q-1 0 -4 0 q-3 -1 -5 -1 q-5 -6 -13 -15 q-5 -6 -7 -8 q11 1 29 2 q11 1 15 1 q2 2 6 9 q5 9 8 14 q9 -6 23 -18 q9 -6 9 -12 ZM167 107 q0 -3 -7 -7 l0 -28 q1 -21 1 -24 q-1 -10 -8 -15 q-2 -1 -6 -3 q-1 -1 -2 -1 q-4 -1 -7 0 q-1 0 -1 5 q1 14 1 27 l0 35 q0 3 0 10 q-1 9 -1 17 q4 -1 15 -5 q-1 0 3 -1 q12 -6 12 -10 ZM115 173 q0 -15 -15 -17 q-9 0 -12 11 q-1 7 -7 22 q0 0 -1 2 q-2 3 -4 5 q-3 3 -3 4 q1 0 1 1 q2 1 16 -2 q12 -4 18 -10 q7 -6 7 -16 Z" /><glyph glyph-name="" unicode="&#x5355;" d="M242 43 q-1 -3 -10 -3 q-23 0 -32 -1 q-17 0 -54 -2 q-5 0 -8 0 q1 -3 1 -13 q0 -10 0 -16 q0 -17 0 -15 q0 -6 -2 -8 q-3 -7 -10 -10 q-7 -3 -11 -2 q-4 1 -3 3 q0 3 0 6 q0 2 0 6 q1 7 1 12 l1 35 q-27 -1 -6 0 q-21 -1 -54 -4 q-13 0 -34 -3 q0 0 -5 11 q4 0 13 0 q14 1 22 1 l64 3 l0 27 l-29 -2 q-1 -4 -7 -9 q-2 -1 -6 -3 q-1 -1 -2 -1 q-4 -1 -6 0 q0 1 -1 4 l0 7 q0 2 1 8 l0 9 q0 29 -2 51 q0 3 -1 14 q-1 7 -1 11 q3 0 14 -6 q3 -1 15 -9 q2 0 13 1 q18 1 28 2 q14 31 21 60 q3 -1 12 -6 q5 -3 8 -5 q12 -8 11 -11 q0 -4 -11 -7 q-12 -15 -26 -31 q14 1 24 1 l9 14 q4 -4 16 -12 q1 -1 3 -3 q2 -1 2 -1 q3 -3 2 -4 q1 -4 -8 -9 l0 -28 q0 -9 0 -13 q1 -8 0 -17 q0 -2 0 -2 q-1 -8 -12 -13 q-3 -2 -6 -2 q-4 -1 -6 0 q-2 2 -2 3 q0 2 0 12 l-30 -2 q0 -12 0 -27 l60 3 q2 3 6 9 q6 9 8 13 q4 -2 14 -10 q4 -4 7 -6 q9 -7 9 -10 ZM170 141 q-5 0 -15 0 q-12 -1 -18 -1 l0 -26 q15 0 25 3 q0 -1 1 -2 q1 -1 1 -2 q1 -3 1 -4 q0 -1 -7 -1 q-3 0 -12 -1 q-6 -1 -9 -1 q0 -9 1 -28 l31 2 q0 12 1 34 q0 9 0 27 ZM116 138 l-32 -1 l1 -24 q0 -3 0 -12 q1 -16 1 -25 l30 1 l0 28 q-15 0 -24 -2 l-3 9 q9 0 27 1 q0 9 0 25 ZM106 153 q-12 -1 -13 17 q0 9 -7 20 q-2 2 -4 5 q-2 2 -1 2 q1 3 7 1 q2 -1 6 -2 q4 -2 6 -3 q11 -6 15 -12 q11 -22 -9 -28 Z" /><glyph glyph-name="" unicode="&#x53e3;" d="M215 145 q-1 -5 -12 -12 q0 -1 0 -12 q-1 -30 -2 -56 q0 0 1 -1 q2 -3 4 -4 q8 -8 6 -11 q-2 -3 -11 -3 q-21 0 -39 -1 l-81 -4 q0 -13 -1 -18 q0 -7 -2 -10 q-3 -6 -10 -11 q-7 -6 -12 -4 q-1 0 -3 5 q0 1 1 8 q0 5 1 14 q0 8 0 12 q0 53 -3 92 q0 3 -3 39 q6 -2 15 -6 q8 -3 11 -5 q3 -3 9 -6 q57 1 90 3 l13 16 q10 -6 19 -14 q9 -8 9 -11 ZM177 145 q-8 0 -28 -1 q-44 -3 -72 -4 l3 -90 l94 5 q0 19 3 90 Z" /><glyph glyph-name="" unicode="&#x5b66;" d="M230 130 q0 -5 -11 -5 q-8 2 -17 0 q-5 0 -16 -6 q-7 -4 -9 -3 q-1 2 2 8 q2 2 7 10 q2 4 4 7 q-42 -3 -130 -7 q0 -23 -5 -38 q-4 -12 -12 -13 q-6 0 -10 6 q-5 6 -5 12 q0 6 5 13 q2 2 4 6 q3 4 4 6 q5 9 7 19 q0 1 0 5 q1 4 1 6 q0 5 0 5 q0 3 2 3 q3 1 5 -8 q3 -8 3 -14 l85 4 q15 30 22 58 q5 -3 15 -9 q6 -3 9 -5 q9 -6 8 -9 q0 -4 -12 -6 q-2 -2 -10 -12 q5 7 -4 -4 q-2 -2 -7 -6 q-4 -4 -7 -6 l30 1 q3 5 14 14 q1 -1 4 -4 q4 -3 18 -19 q6 -6 6 -9 ZM234 50 q-2 -2 -12 -2 q-9 0 -30 0 l-48 -2 q1 -8 1 -20 q1 -18 -2 -27 q-3 -12 -10 -19 q-9 -11 -17 -9 q-1 0 -6 7 q-2 6 -5 10 q-3 6 -10 10 q-8 4 -7 7 q0 2 10 0 q3 0 15 -1 q5 0 7 3 q2 3 2 9 q1 11 1 19 q0 4 0 10 l-58 -4 q-21 0 -36 -3 l-6 12 q26 0 42 0 q19 2 58 3 q0 3 -1 8 q0 6 -1 8 q-2 8 -5 14 q-3 7 -3 7 q0 1 0 1 q2 2 8 -3 q9 -6 15 -15 q5 -7 7 -19 l45 3 l14 22 q5 -2 18 -13 q4 -3 6 -5 q9 -6 8 -11 ZM183 105 q-1 -3 -10 -3 q-9 -1 -16 -4 q-1 -1 -4 -3 q-5 -4 -9 -6 q-3 -2 -7 -4 q-2 -1 -2 -1 q-2 0 -2 2 q0 1 1 2 q2 3 3 5 q1 2 3 5 q4 6 6 10 q-7 0 -24 -1 q-17 -2 -27 -2 q-3 0 -15 -1 q9 1 -4 -1 q-1 1 -3 6 q-1 3 -2 4 q12 0 22 0 q20 2 54 3 l11 14 q6 -4 17 -14 q8 -7 8 -11 ZM100 156 q-3 -7 -12 -9 q-6 0 -9 5 q-3 4 -3 10 q0 11 -2 21 q0 3 -3 7 q-2 5 -2 5 q3 3 14 -6 q14 -9 17 -19 q3 -8 0 -14 ZM141 166 q-2 -12 -13 -13 q-6 0 -10 4 q-3 3 -3 10 l0 9 q0 6 -1 11 q0 4 -3 8 q0 1 -1 2 q-1 3 0 3 q1 1 3 0 q1 -1 2 -1 q2 -1 5 -2 q3 -2 4 -3 q1 -1 3 -3 q5 -4 8 -7 q8 -9 6 -18 Z" /><glyph glyph-name="" unicode="&#x5de5;" d="M237 13 q-2 -3 -10 -3 q-13 0 -39 0 q-75 -3 -124 -7 q-21 -1 -38 -4 q-3 4 -7 14 q15 0 45 0 l49 3 q1 8 1 99 q0 8 -1 24 q0 10 0 12 q-22 -1 -67 -6 q-1 2 -3 5 q-3 5 -4 8 q14 -1 34 0 q6 0 8 0 q15 1 49 3 q22 1 35 2 l15 23 l24 -19 q8 -6 7 -10 q0 -3 -9 -3 q-3 0 -10 0 q-14 -1 -24 -1 q-12 0 -39 -2 q20 2 -3 0 q19 -6 19 -10 q0 -3 -2 -5 q0 0 -2 -1 q-1 -1 -2 -2 l0 -116 q7 1 26 1 q15 1 25 1 l15 25 q1 -1 5 -4 q3 -2 19 -15 q9 -7 8 -12 Z" /><glyph glyph-name="" unicode="&#x5f53;" d="M197 -13 q-3 -3 -9 -5 q-6 -3 -9 -2 q-3 0 -3 5 q0 4 0 13 q-7 0 -20 -1 q-55 -3 -75 -4 q-15 -2 -28 -3 l-6 11 q22 0 30 0 q16 1 52 3 q32 1 47 2 q1 12 1 42 l-80 -4 q-10 -1 -33 -3 l-5 10 q9 0 23 1 q10 0 13 0 q13 1 40 2 q29 2 42 3 q0 19 0 37 q-14 -1 -47 -3 q-32 -2 -47 -3 q-5 0 -13 -1 q-9 0 -14 -1 l-5 11 q11 0 30 0 l34 2 l0 72 q0 12 -1 30 q6 -1 21 -6 q8 -1 9 -3 q4 -1 4 -4 q1 -2 -3 -6 q0 0 -6 -4 l0 -78 q22 2 36 2 l11 14 q2 -1 6 -4 q7 -5 12 -9 l1 0 q7 -4 7 -9 q0 -3 -10 -8 q0 -44 0 -56 q0 -17 1 -27 q1 -9 -5 -15 q-1 -1 -1 -1 ZM194 147 q-2 -1 -6 -5 q-6 -5 -11 -9 q-2 -1 -5 -3 q-6 -4 -15 -9 q-1 0 -2 -1 q-5 -2 -6 -1 q-2 1 4 7 q3 6 10 18 q4 9 7 16 q1 2 2 7 q3 5 6 15 q3 -3 9 -8 q4 -2 13 -11 q9 -7 8 -11 q1 -5 -14 -5 ZM94 126 q-1 -5 -5 -8 q-3 -3 -9 -4 q-6 0 -11 6 q-3 5 -3 15 q2 11 0 17 q-1 5 -6 15 q-2 3 -1 5 q1 1 4 0 q2 -1 3 -1 q4 -3 10 -7 q5 -3 12 -10 q6 -10 6 -21 q0 -3 0 -7 Z" /><glyph glyph-name="" unicode="&#x606f;" d="M190 158 q1 -4 -8 -10 q1 -11 1 -34 q0 -1 0 -8 q1 -15 2 -27 q0 -2 -1 -6 q0 -2 0 -3 q-4 -10 -15 -12 q-6 -3 -8 -1 q-2 1 -2 10 q0 3 0 9 l-64 -4 q0 -4 0 -7 q-2 -4 -8 -9 q-7 -5 -12 -4 q-3 1 -3 7 q2 7 3 20 q1 16 1 34 q0 11 0 31 q-2 6 -2 32 q8 -3 16 -8 q2 -1 7 -3 q3 -1 5 -2 l7 0 q0 2 1 5 q2 8 4 20 q0 1 1 6 q1 8 2 13 q12 -6 21 -12 q11 -6 9 -10 q0 -3 -11 -6 q-4 -6 -13 -15 l35 1 l10 13 q1 -1 5 -4 q5 -4 9 -8 q6 -4 8 -8 ZM159 84 l0 73 q-6 0 -32 -1 q-20 -1 -32 -1 q0 -3 1 -19 q6 0 15 1 q6 0 15 1 q12 0 21 3 q6 -7 5 -9 q0 -2 -3 -2 l-6 0 q-3 0 -15 0 q-4 -1 -16 -1 q-10 -1 -16 -1 l0 -18 l31 2 q11 0 21 3 q5 -6 5 -8 q0 -3 -9 -3 q-6 0 -18 0 q-2 -1 -15 -1 q-9 -1 -15 -1 q0 -12 -1 -22 l64 4 ZM184 5 q0 -5 -9 -10 q-7 -5 -18 -6 q-16 -3 -33 -3 q-14 0 -23 1 q-10 1 -13 7 q-2 1 -2 12 l0 47 q3 -1 12 -5 q4 -1 6 -2 q9 -3 9 -7 q0 -2 -7 -8 q0 0 0 -17 q0 -4 1 -6 q0 0 1 0 q3 -1 6 -1 q6 -1 12 -1 q18 2 26 6 q8 5 15 22 q0 1 1 6 q-1 -3 1 3 q0 1 1 2 q2 3 3 3 q1 0 1 -3 q1 -2 1 -3 q0 -4 0 -10 q1 -9 1 -10 q0 -1 1 -3 q0 -4 2 -5 q2 -1 3 -4 q2 -2 2 -5 ZM69 35 q2 -22 -7 -34 q-6 -10 -13 -10 q-4 0 -8 3 q-3 3 -3 6 q-2 5 -2 8 q1 9 10 17 q6 5 10 11 q2 2 3 8 q1 1 1 2 q2 4 2 4 q1 3 1 2 q5 1 6 -17 ZM227 27 q0 -8 -4 -13 q-5 -4 -11 -4 q-5 -1 -9 6 q-1 1 -3 5 q-2 5 -3 7 q-5 12 -11 17 q-2 2 -5 4 q-3 3 -3 4 q2 2 8 1 q15 -1 26 -6 q8 -3 12 -10 q3 -4 3 -11 ZM155 36 q-1 -12 -12 -12 q-7 0 -12 11 q-1 5 -3 9 q-1 4 -5 10 l-3 3 q-2 3 -2 4 q0 1 8 1 q14 -3 23 -10 q9 -8 6 -16 Z" /><glyph glyph-name="" unicode="&#x6237;" d="M215 142 q0 -3 -8 -10 q8 6 -2 -1 q-3 -9 -3 -24 q3 -3 6 -5 q4 -4 4 -7 q0 -3 -10 -4 l-18 0 q-10 -1 -50 -3 q-29 -1 -43 -2 q-2 -17 -5 -31 q-7 -28 -31 -51 q-6 -7 -18 -13 q-13 -9 -22 -11 q-4 -2 -6 0 q0 2 4 5 q2 1 6 4 q12 10 20 18 q14 15 22 35 q7 19 8 47 q0 3 0 12 q1 21 0 26 q0 5 -1 22 q-1 8 -1 13 q3 -1 10 -4 q6 -3 9 -5 q1 0 3 -2 q6 -3 10 -5 q17 0 79 4 l10 14 q8 -4 18 -13 q9 -7 9 -9 ZM92 136 q0 -25 -1 -42 q36 2 84 5 q1 6 3 23 q1 13 2 19 q-11 0 -49 -3 q-26 -1 -39 -2 ZM155 182 q3 -8 -2 -16 q-5 -8 -13 -8 q-8 0 -11 7 q-2 2 -5 12 q-2 11 -10 18 q-5 5 -4 6 q1 2 12 0 q10 -1 19 -6 q11 -4 14 -13 Z" /><glyph glyph-name="" unicode="&#x63d0;" d="M251 4 q0 -2 -7 -5 q-6 -4 -12 -7 q-4 -4 -10 -9 q-1 -1 -4 -4 q-2 -2 -3 -3 q-6 -1 -19 5 q-18 9 -37 24 q-14 11 -29 33 q0 -1 -2 -4 q-2 -5 -3 -9 q-7 -18 -24 -34 q-2 -2 -7 -6 q-4 -2 -6 -4 q-11 -8 -14 -5 q0 0 5 7 q2 2 8 10 q3 4 5 7 q6 9 13 27 q3 11 6 32 q1 9 1 21 q2 -1 7 -3 q8 -3 14 -5 q10 -4 10 -7 q0 -5 -8 -8 q0 -2 -1 -6 q0 -3 -1 -5 q11 -9 21 -16 l0 61 l-29 -2 q-13 0 -25 -2 l-5 10 q17 0 27 0 l83 5 l13 20 q1 -1 4 -3 q2 -1 16 -12 q8 -6 6 -9 q0 -3 -9 -3 q-4 0 -24 -1 q-6 0 -17 0 q-12 -1 -19 -1 l0 -31 q2 0 8 0 q8 1 12 1 q3 6 12 19 q2 -2 9 -6 q8 -6 13 -10 q4 -3 4 -6 q0 -3 -9 -3 q-5 -1 -26 -1 q-7 0 -23 -1 l0 -35 q19 -6 41 -10 q3 -1 12 -2 q9 -1 15 -2 q6 0 5 0 q2 -1 3 -2 ZM114 136 q-2 -3 -8 -3 q-1 0 -3 0 q-9 -1 -17 -1 l-5 -1 l0 -25 q3 1 7 5 q2 1 3 2 q11 7 12 7 q1 -1 1 -2 q0 -2 -2 -5 q0 1 -1 -1 q-2 -2 -8 -7 q-8 -8 -12 -12 q0 -6 0 -38 q1 -24 1 -38 q0 -7 -2 -12 q-1 -4 -7 -10 q-5 -5 -14 -9 q-1 0 -2 -1 q-2 -1 -5 -1 q-3 0 -4 5 q0 3 -2 7 q-3 7 -6 10 q-3 3 -4 4 q-1 1 -1 2 q-2 2 -2 3 q1 2 7 1 q9 0 12 0 q7 0 7 6 q0 9 1 28 q0 11 0 23 q-3 -3 -9 -9 q-6 -5 -8 -7 q-1 -1 -3 -3 q-5 -6 -9 -10 q-1 -1 -3 -4 q-2 -1 -5 -3 q-4 0 -19 19 q2 2 9 6 q14 8 23 14 q8 4 24 16 q0 13 0 37 q-9 0 -17 -2 q-1 0 -3 0 q-8 -1 -20 -4 l-7 12 q9 0 21 1 q6 0 8 0 q2 1 9 1 q6 1 9 1 l0 27 q0 9 -1 32 q2 -2 14 -5 q3 -1 5 -2 q12 -4 12 -8 q0 -3 -8 -9 l-1 -33 l2 0 l10 17 q0 0 3 -3 q7 -5 12 -10 q6 -5 6 -8 ZM217 180 q0 -2 -8 -8 q0 -3 0 -13 q1 -17 1 -26 q1 -8 -1 -11 q-1 -6 -9 -9 q-8 -4 -11 -3 q-3 0 -3 6 q0 4 0 8 l-46 -2 q-1 -7 -7 -12 q-8 -6 -13 -4 q-3 0 -3 5 q0 2 1 5 q0 3 0 4 q0 5 0 17 q1 23 0 33 q0 8 -1 27 q2 -2 13 -5 q2 -1 4 -2 q9 -2 10 -5 q8 0 20 1 q15 0 21 1 l9 12 q1 -1 5 -4 q5 -2 8 -4 q10 -6 10 -11 ZM186 180 l-47 -3 l0 -21 q4 1 11 1 q7 1 10 1 q7 0 14 3 q1 -1 2 -2 q3 -4 2 -5 q0 -2 -8 -2 q-2 -1 -9 -1 q-6 -1 -9 -1 q-4 0 -13 0 l1 -21 l46 3 l0 48 Z" /><glyph glyph-name="" unicode="&#x65e0;" d="M22 -16 q-6 -2 -7 0 q-1 1 5 6 q9 4 25 13 q13 8 22 15 q24 23 35 51 q6 14 8 33 q-12 0 -40 -3 q-7 0 -28 -3 q-3 6 -7 13 q12 0 33 0 q19 2 43 2 q0 1 0 4 q2 26 2 48 l-18 -1 q-16 0 -32 -3 l-5 12 q23 -1 33 0 q38 1 68 4 q2 3 8 13 q3 4 5 7 q2 -1 7 -5 q8 -5 13 -9 q9 -9 7 -10 q-1 -3 -9 -3 q-4 0 -18 -1 q-6 -1 -9 -1 q-7 0 -28 -1 q-7 -1 -10 -1 q19 -6 19 -11 q1 -1 -7 -7 q1 1 -1 -1 q-1 -9 0 -6 q-2 -20 -3 -27 l45 3 l15 20 q5 -2 21 -14 q9 -8 8 -11 q-1 -3 -5 -3 q-1 0 -3 0 q-3 -1 -4 -1 q-8 0 -29 0 q-15 0 -49 -3 q-12 -98 -110 -119 ZM240 7 q0 -12 -29 -15 q-2 0 -6 -1 q-10 -1 -20 -2 q-13 0 -28 1 q-3 0 -7 1 q-5 0 -7 1 q-12 4 -12 24 q0 9 1 33 q0 17 0 21 l0 21 q12 -3 19 -6 q11 -4 10 -7 q0 -5 -7 -8 l0 -50 q0 -6 2 -7 q3 -2 9 -2 q16 -1 31 2 q10 2 13 5 q6 6 14 34 q0 3 3 15 q1 3 1 4 q3 6 4 6 q2 0 2 -6 q-1 -35 -1 -41 q1 -7 1 -9 q2 -3 3 -6 q2 -1 3 -3 q1 -2 1 -5 Z" /><glyph glyph-name="" unicode="&#x6cd5;" d="M243 90 q0 -3 -7 -3 q-4 0 -13 0 q-13 -1 -21 -1 q-19 -1 -13 -1 q-25 -1 -37 -2 q6 -3 11 -5 q9 -5 9 -8 q0 -5 -12 -7 q-13 -21 -33 -45 q26 2 64 7 q-1 3 -5 10 q-1 3 -2 4 q-3 6 -8 10 q-3 5 -3 6 q2 3 21 -8 q12 -7 21 -18 q11 -12 11 -27 q1 -6 -4 -11 q-5 -6 -11 -6 q-8 -2 -11 6 q-1 3 -3 10 q0 2 -1 4 q0 4 -1 4 q0 3 -2 8 q-16 -6 -36 -11 q-12 -3 -36 -10 q-5 -2 -7 -3 q-5 -4 -8 -4 q-4 0 -6 7 q-2 3 -6 14 q-2 5 -3 7 q15 0 24 14 q20 27 25 51 q-10 0 -21 -1 q-12 -1 -31 -3 l-5 11 l35 0 q2 1 13 1 q9 1 14 1 l0 42 q-2 0 -6 0 q-7 -1 -12 -1 q-5 0 -22 -3 q-2 3 -5 11 q9 0 28 0 q9 0 17 1 l0 27 q0 18 -1 33 q7 -1 20 -6 q14 -6 13 -9 q0 -4 -9 -9 l0 -35 l16 0 l12 23 q2 -2 6 -5 q8 -5 15 -12 q6 -6 6 -10 q0 -2 -12 -2 q-1 0 -10 0 q-18 -1 -33 -2 l0 -42 l32 2 q3 3 12 18 q-7 -12 3 5 q2 -2 8 -6 q9 -8 15 -13 q6 -5 5 -8 ZM85 167 q0 -6 -4 -11 q-4 -6 -12 -6 q-7 1 -11 7 q0 2 -3 9 q-1 2 -1 3 q0 2 -1 5 q-1 3 -1 4 q0 0 -1 1 q-1 4 -3 5 q-5 5 -4 5 q0 3 9 1 q14 0 23 -7 q9 -7 9 -16 ZM62 114 q0 -6 -4 -11 q-5 -5 -11 -5 q-9 0 -12 8 q-3 12 -11 19 q-7 6 -7 7 q0 3 14 2 q31 -2 31 -20 ZM96 142 q2 0 -1 -10 q-1 -4 -5 -15 q-5 -19 -9 -31 q-10 -39 -19 -66 l-7 -26 q-3 -9 -8 -9 q-3 0 -13 7 q-6 4 -12 9 q3 5 14 22 q-9 -13 3 3 q12 22 32 65 q6 15 19 43 q3 9 6 8 Z" /><glyph glyph-name="" unicode="&#x7406;" d="M248 4 q0 -3 -14 -4 q-16 0 -28 0 q-16 -1 -58 -4 q-32 -2 -51 -3 q-4 0 -18 -1 q-6 -1 -9 -1 l-5 10 q21 0 30 0 q5 0 20 1 q21 2 34 3 l0 38 q-9 -1 -15 -1 q-7 -1 -24 -3 l-6 10 q24 0 30 1 q7 0 15 0 l0 37 l-22 -1 q0 -4 -1 -7 q-1 -5 -10 -10 q-6 -3 -10 -3 q-2 1 -2 4 q-1 1 0 6 q0 3 0 5 q1 9 1 11 q0 5 1 14 q0 10 0 14 q0 34 -1 48 q0 0 -7 -1 l-24 -1 q-7 0 -14 0 q1 0 2 -1 q5 -1 9 -4 q8 -3 8 -5 q0 -4 -6 -8 l0 -32 l4 0 l8 14 q1 -1 2 -2 q5 -3 11 -9 q6 -6 5 -7 q-1 -3 -13 -3 l-17 -1 l0 -42 l14 6 q9 5 12 5 q1 0 1 -1 q0 -4 -11 -12 q-1 -1 -4 -4 q-5 -4 -23 -18 q-1 -1 -3 -2 q-12 -8 -21 -17 q-3 -6 -10 -10 q-3 0 -7 4 q-3 4 -8 10 q-1 1 -4 5 q-2 3 -4 5 q4 1 14 5 q10 3 15 5 q11 5 17 8 l0 52 q-16 -1 -27 -3 q0 1 -4 10 q6 -1 19 0 q8 0 12 0 q0 1 1 16 l0 16 q-1 6 -1 19 q-2 0 -6 0 q-5 -1 -7 -1 q-4 0 -10 -1 q-8 0 -11 -1 l-5 11 q5 0 14 -1 q7 0 10 0 q6 0 18 1 q13 0 18 1 l12 18 q1 -1 5 -4 q3 -1 16 -13 q0 12 -1 18 q3 -1 18 -9 q3 -1 11 -6 q2 -1 3 -2 q36 2 58 3 l10 14 q2 -2 7 -5 q6 -4 10 -7 q9 -6 9 -10 q0 -3 -11 -9 q0 -12 0 -31 q0 -6 1 -16 q1 -8 1 -16 q0 -4 -1 -9 q0 -2 0 -2 q-2 -5 -9 -9 q-9 -5 -14 -4 q-3 1 -4 4 q0 3 1 11 l-21 -1 l0 -37 l12 0 q1 2 4 8 q5 7 7 11 l17 -13 q7 -5 8 -9 q0 -4 -13 -3 q-3 0 -9 0 q-9 -1 -13 -1 q-2 0 -6 0 q-5 -1 -7 -1 l0 -38 l33 2 q4 6 13 22 q3 -2 10 -7 q8 -6 13 -10 q8 -7 6 -9 ZM149 169 q-2 0 -7 0 q-9 -1 -15 -1 q0 -25 0 -74 l22 1 l0 32 q0 0 -2 0 q-6 -1 -12 -1 l-4 9 q11 0 18 0 l0 34 ZM194 171 q-9 0 -21 -1 l0 -33 q1 0 4 1 q6 1 8 2 q6 -7 5 -9 q-1 -2 -9 -2 q-4 0 -8 0 l0 -32 l21 1 q0 29 0 38 l0 35 Z" /><glyph glyph-name="" unicode="&#x7ba1;" d="M196 0 q0 0 -1 -1 q0 -1 -2 -1 l-8 0 q-2 0 -6 0 q-9 -1 -15 -1 q-21 0 -63 -3 q0 -10 -10 -18 q-9 -5 -13 -3 q-2 0 -1 9 q1 10 1 21 q1 9 1 29 q2 40 0 49 q0 13 -1 25 q2 0 6 -3 q6 -2 9 -4 q5 -2 14 -8 l41 2 q1 1 3 4 q3 5 5 8 q6 -3 17 -11 q6 -4 6 -7 q0 -3 -7 -7 l-1 -11 q7 -5 8 -9 q0 -3 -2 -3 q-4 0 -7 0 q-6 0 -18 -1 l-51 -2 l0 -20 l60 3 q3 3 9 13 q6 -3 17 -10 q3 -3 6 -5 q1 0 1 -1 q1 -1 1 -2 q0 -3 -7 -7 q0 -5 0 -16 q8 -6 8 -9 ZM140 135 q3 -6 -1 -12 q-1 -1 -3 -3 l51 2 q2 1 12 13 q4 -2 13 -11 q6 -7 10 -10 q6 -6 5 -9 q0 -3 -11 -3 q-12 1 -16 1 q-6 0 -16 -3 q-9 -3 -10 -3 q-1 0 -1 1 q-1 0 3 6 q1 1 6 7 q-3 -4 3 4 l-121 -6 q1 -12 -2 -21 q-1 -7 -7 -11 q-5 -6 -11 -6 q-5 1 -8 4 q-4 5 -4 9 q0 6 5 11 q5 5 9 9 q6 7 8 19 q0 3 1 6 q0 2 1 2 q4 0 7 -15 l59 3 q-1 2 -3 3 q0 3 -3 8 q-1 9 -6 11 q-3 -7 -10 -8 q-6 -2 -9 8 q0 5 -3 14 q-1 5 -4 7 l-8 0 q-9 -10 -17 -18 q-13 -13 -31 -22 q-6 -3 -6 -1 q-1 3 3 6 q38 37 48 77 q2 -1 6 -4 q8 -4 13 -7 q9 -5 8 -8 q-1 -1 -4 -3 q-3 -1 -7 -3 q-3 -4 -7 -9 q10 0 17 1 q1 1 3 6 q4 7 7 11 q2 -1 12 -9 q4 -4 7 -6 q4 -3 4 -6 q-1 -2 -6 -2 q-8 -1 -23 -1 l-10 -1 q11 -5 15 -11 q2 -2 2 -4 q3 0 5 -1 q6 0 15 -3 q7 -3 10 -9 ZM190 145 q0 -4 -3 -8 q-4 -4 -9 -4 q-5 0 -8 4 q-2 2 -2 9 q0 11 -7 20 q-9 -1 -10 -1 q-2 -2 -8 -6 q-5 -5 -8 -7 q-5 -3 -8 -4 q-1 0 -1 2 q0 0 4 6 q11 15 17 33 q4 9 7 19 q12 -6 18 -9 q9 -4 7 -9 q0 -2 -10 -4 q-1 -1 -2 -3 q-4 -4 -8 -9 l29 2 q3 5 12 18 q1 0 2 -1 q5 -5 18 -14 q6 -6 6 -9 q-1 -2 -10 -2 q-5 -1 -22 -1 q-16 -1 -23 -1 q8 -3 12 -8 q6 -4 7 -13 ZM163 29 q-6 0 -21 -1 q-24 -1 -41 -2 q0 -2 0 -24 l61 3 q1 18 1 24 ZM149 86 l-48 -3 l0 -22 q4 0 13 1 q17 1 34 1 l1 23 Z" /><glyph glyph-name="" unicode="&#x7cfb;" d="M214 71 q2 -7 -1 -13 q-6 -8 -11 -8 q-12 -2 -15 10 q-1 3 -3 11 l-2 3 q-24 -4 -48 -9 q4 -2 6 -2 q9 -3 9 -6 q0 -3 -7 -7 q0 -1 1 -29 q0 -13 0 -22 q0 -13 -14 -21 q-6 -5 -10 -3 q-1 0 -3 3 q0 1 -1 3 q0 2 0 2 q-2 6 -8 12 q-1 1 -4 3 q-2 3 -4 4 q-1 1 -3 3 q-2 3 -2 4 q2 2 9 0 q1 0 3 0 q3 -1 5 -1 q5 0 7 1 q2 0 2 8 l0 30 q0 10 0 16 q-10 -2 -27 -5 q-8 -1 -12 -2 q-5 -1 -11 -3 q-5 -3 -11 -4 q-3 -1 -7 7 q0 1 -1 2 q-4 6 -7 13 q21 2 39 13 q18 11 39 29 q-6 -1 -17 -4 q-19 -6 -23 -6 q-1 0 -5 -3 q-6 -3 -8 -4 q-2 0 -8 6 q-1 1 -2 2 q-1 2 -3 6 q-3 6 -5 9 q12 2 23 11 q17 15 27 36 q-21 -2 -43 -2 q-3 0 -4 0 q-4 0 -4 2 q0 3 8 4 q3 0 11 1 q3 1 5 1 q25 4 46 11 q16 4 34 13 q1 1 3 2 q2 1 12 8 q2 -2 8 -9 q3 -4 5 -6 q6 -8 6 -10 q0 -6 -15 -3 q-28 -6 -57 -11 q1 -1 3 -2 q4 -2 6 -4 q7 -4 7 -7 q0 -1 -1 -2 q-2 -3 -11 -3 q-11 -10 -33 -26 q-3 -2 -4 -3 q8 0 34 2 q11 1 16 1 q8 7 14 16 q5 5 16 25 q2 -2 6 -6 q9 -7 15 -13 q4 -6 4 -9 q0 0 -1 -2 q-1 -1 -13 -1 q-15 -18 -80 -57 q19 1 61 3 q16 1 24 2 q-5 10 -11 16 q-5 6 -5 7 q2 2 9 -1 q15 -4 30 -14 q9 -9 12 -18 ZM215 16 q2 -6 -1 -12 q-2 -5 -8 -7 q-3 -1 -6 -1 q-6 0 -10 3 q-1 1 -4 6 q0 2 -1 3 q-1 6 -3 10 q-6 15 -16 23 q-6 5 -6 7 q2 2 9 0 q17 -3 27 -10 q17 -9 19 -22 ZM91 40 q0 -4 -1 -11 q-4 -15 -9 -21 q-1 -2 -3 -5 q-1 -1 -2 -2 q-3 -3 -7 -5 q-9 -6 -15 -5 q-8 2 -9 6 q-4 7 -1 13 q2 6 13 11 q12 6 21 13 q2 1 6 7 q5 6 6 6 q1 -1 1 -7 Z" /><glyph glyph-name="" unicode="&#x7edf;" d="M100 123 q-21 -29 -49 -53 q22 6 46 10 q8 2 9 0 q1 -2 -7 -6 q-30 -12 -48 -22 q-6 -5 -12 -6 q-4 0 -7 7 q-2 4 -7 15 q12 3 21 15 q2 2 5 6 q13 16 18 24 q-13 -5 -25 -10 q-1 0 -4 -2 q-4 -2 -7 -3 q-4 0 -7 6 q-5 9 -6 16 q12 4 19 15 q16 26 22 45 q5 11 6 19 q12 -8 19 -15 q6 -5 6 -8 q0 -4 -10 -6 q-19 -29 -38 -49 q8 0 30 2 q1 1 2 3 q1 1 1 2 q3 6 7 17 q1 4 2 5 q12 -8 18 -14 q6 -5 5 -8 q1 -3 -9 -5 ZM231 159 q0 -3 -11 -3 q-15 0 -28 -1 q-8 0 -34 -2 q-1 0 -3 0 q9 -4 14 -9 q2 -1 2 -4 q0 -3 -9 -5 q-2 -2 -6 -8 q-11 -14 -18 -20 q15 1 47 4 q-3 -1 5 0 q-1 6 -10 14 q-4 3 -3 5 q0 2 6 0 q16 -4 26 -12 q9 -7 10 -17 q0 -15 -13 -17 q-8 1 -11 7 q-1 5 -3 12 q-7 -1 -24 -5 q-21 -5 -32 -7 q-8 -1 -13 -4 q-2 -2 -4 -2 q-4 -1 -6 5 q-2 4 -6 18 q17 1 23 13 q9 16 13 31 q-2 0 -7 -1 q-4 0 -5 0 q-4 0 -14 -1 q-9 0 -13 -1 q-3 5 -5 10 q29 0 44 1 l48 3 l14 21 q1 -1 5 -4 q3 -1 16 -13 q6 -5 5 -8 ZM246 4 q0 -11 -15 -14 q-12 -4 -27 -4 q-23 0 -29 2 q-9 3 -12 9 q-1 3 -1 13 l0 51 q0 11 0 33 q6 -1 18 -6 q2 0 5 -1 q2 -1 2 -1 q3 -3 3 -4 q0 -4 -7 -8 q0 -37 0 -51 q0 -6 1 -13 q3 -2 12 -2 q14 0 20 7 q3 3 5 8 q0 1 1 3 q3 6 6 21 q5 18 6 24 q1 1 2 2 q1 2 2 2 q2 -1 2 -5 q0 -2 0 -6 q-1 -7 -1 -12 q-1 -19 -1 -28 q0 -7 4 -12 q4 -6 4 -8 ZM155 64 q-1 -3 -8 -6 q-15 -54 -71 -78 q-5 -3 -6 -2 q-1 2 3 6 q39 31 50 72 q1 3 2 14 q2 10 2 13 q1 -1 4 -2 q8 -4 12 -7 q12 -6 12 -10 ZM104 39 q-20 -14 -48 -29 q-4 -2 -9 -7 q-2 -2 -4 -4 q-2 -1 -3 -2 q-3 -1 -8 5 q-5 7 -10 18 q33 8 80 26 q7 2 9 0 q-1 -4 -7 -7 ZM174 182 q1 -7 -2 -12 q-4 -4 -10 -6 q-8 -1 -11 4 q-1 1 -4 7 q0 3 -1 4 q-2 8 -7 15 q-2 1 -4 3 q-1 1 -1 1 q-4 2 -3 3 q2 1 6 1 q5 0 9 0 q9 -1 14 -4 q12 -6 14 -16 Z" /><glyph glyph-name="" unicode="&#x8d26;" d="M248 7 q-1 -2 -3 -2 q-15 -4 -28 -17 q-4 -3 -7 -2 q-2 -1 -6 6 q-22 28 -36 98 q-3 0 -8 -1 q-4 0 -6 0 l0 -74 q9 4 22 8 q6 2 7 1 q1 -2 -4 -6 q-6 -5 -20 -15 q-8 -7 -12 -10 q-6 -5 -9 -8 q-1 -2 -4 -2 q-3 0 -5 4 q-1 2 -3 5 q-3 5 -7 14 q15 7 14 20 l0 61 q-3 0 -10 -1 q-5 0 -7 0 l-5 10 q10 0 22 0 l0 59 q0 6 -1 22 q0 13 0 18 q2 -1 9 -3 q6 -3 9 -4 q11 -4 11 -8 q0 -3 -7 -8 l0 -51 q32 37 41 69 q2 -2 8 -7 q8 -7 11 -9 q5 -7 5 -9 q-1 -3 -10 -3 q-22 -27 -55 -48 l0 -17 l42 2 q1 1 2 4 q6 9 11 16 q3 -2 11 -8 q7 -6 10 -9 q5 -4 4 -7 q-1 -2 -7 -2 q-2 0 -9 0 q-10 -1 -14 -1 q-14 0 -29 -2 q28 -72 70 -80 q3 -1 3 -3 ZM116 171 q0 -4 -9 -9 q0 -11 1 -35 q2 -57 2 -58 q0 -4 -1 -9 q0 -2 0 -3 q-3 -5 -9 -8 q-4 -2 -9 -2 q-3 0 -3 4 q1 60 1 120 q-19 -1 -40 -4 l0 -68 q0 -8 0 -16 l0 -25 q0 -5 -7 -11 q-7 -6 -12 -3 q-2 1 -2 7 q1 6 1 15 q0 3 0 9 q1 8 1 14 q0 12 0 22 q0 34 0 52 q0 2 0 8 q-1 11 -1 19 q5 -1 12 -6 q4 -1 10 -6 q3 -1 4 -2 q4 1 16 2 q11 1 15 1 q1 1 4 6 q2 4 4 6 q3 -2 7 -6 q5 -3 8 -5 q7 -6 7 -9 ZM98 -5 q-9 -1 -13 11 q-3 13 -13 27 q-1 2 -3 3 q-11 -32 -51 -54 q-4 -3 -5 -1 q-1 1 2 4 q28 25 35 48 q10 23 10 72 q0 23 -2 49 q4 -1 20 -7 q1 -1 2 -1 q4 -2 4 -5 q1 -1 -2 -4 q-1 -2 -4 -2 q0 -30 -1 -52 q0 -26 -7 -44 q2 0 6 0 q11 -4 16 -7 q15 -9 17 -20 q0 -14 -11 -17 Z" /><glyph glyph-name="" unicode="&#x9662;" d="M248 3 q0 -5 -4 -8 q-4 -4 -9 -5 q-20 -5 -39 -5 q-28 0 -33 11 q-3 3 -3 15 q0 5 1 14 q0 9 0 14 l0 27 q0 4 0 14 q-5 0 -15 -1 q-9 0 -14 -1 q6 -3 11 -5 q1 -1 3 -2 q2 -1 3 -2 q1 -1 2 -2 q1 -1 1 -1 q0 -3 -2 -4 q-3 -1 -5 -3 q0 -1 -1 -5 q0 -3 -4 -20 q-7 -18 -19 -30 q-6 -7 -24 -17 q-5 -2 -15 -5 q-6 -2 -9 -3 q-11 -3 -11 -1 q-2 2 9 7 q9 4 20 12 q15 10 23 28 q8 14 9 38 q1 7 1 14 q-3 0 -12 -1 q6 1 -3 -1 q-1 2 -4 9 q3 -5 -2 2 q27 -1 89 3 q1 1 2 3 q5 9 10 15 q6 -4 18 -15 q6 -5 5 -8 q0 -3 -11 -3 q-14 0 -24 0 q-4 0 -11 0 q-8 -1 -12 -1 q3 -1 7 -2 q3 -1 4 -2 q9 -5 9 -8 q0 -2 -7 -8 l0 -22 q0 -19 0 -22 q0 -6 1 -8 q2 -1 9 -1 q10 0 17 1 q6 2 10 5 q2 2 6 22 q3 12 4 24 q0 1 1 2 q2 8 4 8 q3 0 2 -11 q0 -16 2 -31 q2 -11 5 -17 q1 0 2 -1 q2 -1 2 -2 q1 -3 1 -4 ZM106 166 q0 -3 -6 -5 q0 0 -8 -2 q-8 -11 -13 -19 q-5 -9 -5 -13 q0 -3 8 -10 q19 -20 19 -38 q0 -11 -4 -20 q-1 -1 -2 -2 q-2 -3 -9 -8 q-5 -2 -8 -2 q-2 0 -2 2 q-1 1 -1 4 q-1 3 -3 9 q-1 1 -1 2 q-1 2 -4 5 q-6 5 -6 6 q0 3 6 3 q8 0 9 0 q4 2 5 5 q0 9 -4 22 q-6 9 -11 22 q-1 4 2 19 q0 2 1 8 q2 9 3 15 l-17 -1 q0 -12 -1 -34 l0 -34 q0 -15 1 -45 q0 -30 0 -45 q0 -18 -10 -25 q-9 -8 -13 -6 q-2 0 -2 8 q1 2 1 8 q1 6 1 9 q3 56 3 83 l0 69 q0 7 -1 20 q0 9 0 13 q1 0 3 -2 q7 -3 12 -6 q1 0 2 -1 q1 -1 6 -3 l13 0 q2 2 5 6 q4 5 6 8 q8 -6 18 -15 q7 -6 7 -10 ZM230 137 q0 -3 -3 -4 q0 -1 -6 -1 q-12 2 -14 0 q-3 0 -13 -6 q8 -7 6 -11 q0 0 -7 -1 q-2 0 -8 0 q-8 -1 -12 -1 q-2 0 -8 -1 q-9 0 -45 -4 q0 1 -1 2 q0 2 -1 2 q-4 -9 -13 -9 q-5 0 -8 6 q-3 5 -4 9 q0 5 4 11 q1 2 3 6 q2 3 3 5 q6 9 7 21 l0 7 q0 5 2 5 q5 2 10 -21 l73 5 q1 1 5 6 q3 4 5 6 q2 -3 9 -10 q7 -7 10 -11 q6 -8 6 -11 ZM195 149 l-72 -5 q0 -15 -3 -26 q6 0 19 1 q5 0 21 1 q8 1 12 1 l10 14 q0 0 2 -1 q2 -2 3 -3 q2 3 4 10 q3 5 4 8 ZM175 183 q3 -7 -1 -15 q-3 -7 -12 -7 q-6 0 -9 6 q-1 2 -3 11 q-4 12 -9 16 q-1 1 -2 2 q-3 2 -2 3 q1 1 10 1 q5 -1 13 -4 q3 -1 4 -1 q0 0 1 -1 q8 -6 10 -11 Z" /></font>
</defs>
</svg>
